<?xml version="1.0" encoding="UTF-8" standalone="no"?>
<svg width="45px" height="45px" viewBox="0 0 45 45" version="1.1" xmlns="http://www.w3.org/2000/svg" xmlns:xlink="http://www.w3.org/1999/xlink">
    <!-- Generator: sketchtool 40.1 (33804) - http://www.bohemiancoding.com/sketch -->
    <title>DC2D6F8A-ED60-4271-8356-DCE8CAFE30AF</title>
    <desc>Created with sketchtool.</desc>
    <defs></defs>
    <g id="Symbols" stroke="none" stroke-width="1" fill="none" fill-rule="evenodd" stroke-linecap="round" stroke-linejoin="round">
        <g id="icon/press_release_notif_white" stroke-width="2" stroke="#FFFFFF">
            <g id="icon/newsletter_white_2px">
                <path d="M36.5625,16.40625 L44.0625,21.5625 L44.0625,41.25 C44.0625,42.8025 42.8025,44.0625 41.25,44.0625 L3.75,44.0625 C2.1975,44.0625 0.9375,42.8025 0.9375,41.25 L0.9375,21.5625 L8.4375,16.40625" id="Stroke-385"></path>
                <polyline id="Stroke-386" points="6.5625 38.4375 15.9375 30.9375 29.0625 30.9375 38.4375 38.4375"></polyline>
                <path d="M44.0625,21.5625 L32.8125,29.0625" id="Stroke-387"></path>
                <path d="M0.9375,21.5625 L12.1875,29.0625" id="Stroke-388"></path>
                <polyline id="Stroke-389" points="36.5625 26.25 36.5625 0.9375 8.4375 0.9375 8.4375 26.25"></polyline>
                <path d="M14.0625,5.625 L17.8125,5.625" id="Stroke-390"></path>
                <path d="M17.8125,11.25 L30.9375,11.25" id="Stroke-391"></path>
                <path d="M14.0625,16.875 L30.9375,16.875" id="Stroke-392"></path>
                <path d="M14.0625,22.5 L30.9375,22.5" id="Stroke-393"></path>
            </g>
        </g>
    </g>
</svg>